HIERARCHY
ROOT Hips
{
  OFFSET 0 89.5177 0.535
  CHANNELS 6 Xposition Yposition Zposition Zrotation Xrotation Yrotation
  JOINT Spine
  {
    OFFSET 12.0259 -0.162855 1.69034e-005
    CHANNELS 3 Zrotation Xrotation Yrotation
    JOINT Spine1
    {
      OFFSET 15.3169 -0.0121922 0
      CHANNELS 3 Zrotation Xrotation Yrotation
      JOINT Spine2
      {
        OFFSET 15.3176 -0.0121908 0
        CHANNELS 3 Zrotation Xrotation Yrotation
        JOINT Neck
        {
          OFFSET 19.9142 1.56338 0
          CHANNELS 3 Zrotation Xrotation Yrotation
          JOINT Head
          {
            OFFSET 6.92651 0 0
            CHANNELS 3 Zrotation Xrotation Yrotation
            End Site
            {
              OFFSET 20.7666 0 0
            }
          }
          JOINT LeftShoulder
          {
            OFFSET -6.20654 0.708824 7.28219
            CHANNELS 3 Zrotation Xrotation Yrotation
            JOINT LeftArm
            {
              OFFSET 14.108 0 -1.52588e-005
              CHANNELS 3 Zrotation Xrotation Yrotation
              JOINT LeftForeArm
              {
                OFFSET 28.5802 0 0
                CHANNELS 3 Zrotation Xrotation Yrotation
                JOINT LeftHand
                {
                  OFFSET 27.092 0 0
                  CHANNELS 3 Zrotation Xrotation Yrotation
                  End Site
                  {
                    OFFSET 9.55928 -0.186424 0.145352
                  }
                }
              }
            }
          }
          JOINT RightShoulder
          {
            OFFSET -6.20654 0.708866 -7.28218
            CHANNELS 3 Zrotation Xrotation Yrotation
            JOINT RightArm
            {
              OFFSET 14.108 0 1.52588e-005
              CHANNELS 3 Zrotation Xrotation Yrotation
              JOINT RightForeArm
              {
                OFFSET 28.5802 0 0
                CHANNELS 3 Zrotation Xrotation Yrotation
                JOINT RightHand
                {
                  OFFSET 27.092 0 0
                  CHANNELS 3 Zrotation Xrotation Yrotation
                  End Site
                  {
                    OFFSET 9.55929 -0.186417 -0.145354
                  }
                }
              }
            }
          }
        }
      }
    }
  }
  JOINT LeftUpLeg
  {
    OFFSET 0.005 -0.535 8.837
    CHANNELS 3 Zrotation Xrotation Yrotation
    JOINT LeftLeg
    {
      OFFSET 39.9035 0 0
      CHANNELS 3 Zrotation Xrotation Yrotation
      JOINT LeftFoot
      {
        OFFSET 39.6689 0 0
        CHANNELS 3 Zrotation Xrotation Yrotation
        JOINT LeftToe
        {
          OFFSET 10.1624 13.6296 0
          CHANNELS 3 Zrotation Xrotation Yrotation
          End Site
          {
            OFFSET 8.38147 0 0
          }
        }
      }
    }
  }
  JOINT RightUpLeg
  {
    OFFSET 0.005 -0.535 -8.837
    CHANNELS 3 Zrotation Xrotation Yrotation
    JOINT RightLeg
    {
      OFFSET 39.9035 0 0
      CHANNELS 3 Zrotation Xrotation Yrotation
      JOINT RightFoot
      {
        OFFSET 39.6689 0 0
        CHANNELS 3 Zrotation Xrotation Yrotation
        JOINT RightToe
        {
          OFFSET 10.1624 13.6296 0
          CHANNELS 3 Zrotation Xrotation Yrotation
          End Site
          {
            OFFSET 8.38147 0 0
          }
        }
      }
    }
  }
}
MOTION
Frames:	14
Frame Time:	0.0333333
152.527 88.9452 -128.792 160.031 -84.1824 71.3885 -0.701764 -1.4656 -0.741264 -1.42313 -2.92141 -1.50099 -1.42313 -2.92141 -1.501 -8.30748e-012 -9.0191e-006 -5.27751e-005 13.0089 -5.57555 3.52013 -178.216 -29.3785 -86.3663 -17.0749 -46.9255 10.2147 -7.38308 6.36111e-015 7.95139e-016 -27.8062 -53.4292 -31.1191 -178.475 23.3529 86.157 -35.3261 32.0592 6.43612 -4.14935 0 3.97569e-016 -61.8022 69.0756 64.6944 -1.92544 8.40476 -179.037 -8.07729 3.18055e-015 7.95139e-016 11.1963 5.32248 -7.40967 90 8.39399e-016 -7.95139e-016 -5.35114 -5.64769 176.694 -12.041 1.59028e-015 3.97569e-016 12.5008 -6.09569 3.73116 90 -2.25962e-016 -7.95139e-016 
152.522 88.9341 -128.796 160.097 -84.191 71.4602 -0.713151 -1.44691 -0.748598 -1.44584 -2.88379 -1.5157 -1.44584 -2.88379 -1.51571 -8.30748e-012 -9.0191e-006 -5.27751e-005 12.9802 -5.76036 3.5991 -178.17 -29.4492 -86.2807 -17.0681 -47.2887 10.323 -7.54489 1.27222e-014 7.95139e-016 -27.6606 -53.5886 -30.9897 -178.455 23.2669 86.093 -34.962 32.2154 6.28107 -4.28954 0 -0 -61.8538 69.086 64.7495 -1.9566 8.45448 -179.038 -8.16182 -1.59028e-015 -0 11.2683 5.33369 -7.4468 90 4.89197e-017 -1.59028e-015 -5.4556 -5.68481 176.667 -12.2554 0 9.93923e-017 12.6099 -6.15045 3.77711 90 -1.80537e-016 -0 
152.524 88.9312 -128.799 159.934 -84.1888 71.3071 -0.722381 -1.43063 -0.757686 -1.4643 -2.851 -1.53389 -1.4643 -2.851 -1.5339 -8.30708e-012 -9.0191e-006 -5.27751e-005 13.0168 -5.97362 3.64067 -178.197 -29.315 -86.3215 -16.5881 -46.7831 10.6405 -8.0614 9.54166e-015 -0 -27.6781 -53.6787 -31.0205 -178.438 23.2562 86.0493 -34.6384 32.3605 6.06479 -4.35179 0 1.59028e-015 -61.8767 69.1008 64.7739 -1.96059 8.43351 -179.045 -8.18934 1.59028e-015 3.97569e-016 11.2831 5.33677 -7.4439 90 4.78326e-016 -7.95139e-016 -5.48693 -5.74631 176.652 -12.3397 -1.59028e-015 -5.96354e-016 12.6609 -6.18123 3.80822 90 -6.58086e-016 3.97569e-016 
152.527 88.9307 -128.804 159.514 -84.1693 70.87 -0.728394 -1.42975 -0.758151 -1.47633 -2.84915 -1.53496 -1.47633 -2.84915 -1.53497 -8.30708e-012 -9.0191e-006 -5.27751e-005 12.9725 -6.10239 3.65573 -178.199 -29.2793 -86.3213 -16.372 -46.7662 10.8125 -8.08671 0 -7.95139e-016 -27.7888 -53.7227 -31.1422 -178.41 23.2426 85.976 -34.4193 32.393 5.92455 -4.33014 -9.54166e-015 -1.19271e-015 -61.8328 69.1308 64.7269 -1.9525 8.37382 -179.031 -8.15277 1.59028e-015 -3.97569e-016 11.263 5.31851 -7.3986 90 -6.08002e-016 -0 -5.39401 -5.70088 176.686 -12.1884 7.95139e-016 -2.98177e-016 12.5987 -6.10942 3.73025 90 5.23363e-016 -0 
152.524 88.9298 -128.814 158.953 -84.1501 70.3098 -0.7486 -1.43726 -0.759329 -1.51665 -2.86208 -1.53291 -1.51665 -2.86208 -1.53292 -8.30748e-012 -9.0191e-006 -5.27751e-005 12.9043 -6.26281 3.61326 -178.278 -29.2393 -86.4781 -16.1117 -46.9948 11.0561 -7.74597 1.27222e-014 1.59028e-015 -27.5077 -53.6419 -30.8372 -178.388 23.3138 85.9327 -34.4305 32.1474 5.93296 -4.1522 0 -0 -61.5488 69.2669 64.4223 -1.94915 8.33917 -179.03 -8.14568 0 -1.19271e-015 11.2731 5.34359 -7.43937 90 1.13564e-016 -7.95139e-016 -5.38642 -5.7307 176.681 -12.184 0 -9.93923e-017 12.603 -6.08131 3.7266 90 -8.91037e-016 -3.97569e-016 
152.511 88.9291 -128.822 158.694 -84.1532 70.0605 -0.755361 -1.44477 -0.760505 -1.53019 -2.87886 -1.53086 -1.53019 -2.87886 -1.53087 -8.30788e-012 -9.0191e-006 -5.27751e-005 12.7518 -6.32065 3.56068 -178.274 -29.2666 -86.4736 -16.0033 -47.1314 11.0451 -7.56893 -3.18055e-015 3.57812e-015 -27.391 -53.5857 -30.7075 -178.4 23.3223 85.9637 -34.3632 32.1166 5.94137 -4.13951 -3.18055e-015 -3.97569e-016 -61.4823 69.2791 64.3512 -1.93975 8.33534 -179.044 -8.16183 4.77083e-015 7.95139e-016 11.2863 5.35009 -7.46019 90 5.56364e-016 -2.38542e-015 -5.39045 -5.7894 176.653 -12.227 0 7.95139e-016 12.6352 -6.12408 3.76651 90 5.34234e-016 3.97569e-016 
152.503 88.9288 -128.833 158.773 -84.1728 70.1471 -0.763921 -1.44426 -0.761768 -1.54737 -2.87769 -1.53423 -1.54737 -2.87769 -1.53424 -8.30748e-012 -9.0191e-006 -5.27751e-005 12.6323 -6.31119 3.5968 -178.267 -29.2651 -86.4573 -15.9018 -47.2079 10.9383 -7.59761 -3.18055e-015 -1.98785e-015 -27.4026 -53.5331 -30.7123 -178.403 23.3175 85.9711 -34.2331 32.1104 6.00382 -4.28921 6.36111e-015 -0 -61.6272 69.2331 64.5064 -1.88353 8.33652 -179.066 -8.10474 -1.59028e-015 7.95139e-016 11.2623 5.3419 -7.42463 90 1.72966e-016 -7.95139e-016 -5.34907 -5.75567 176.647 -12.1958 7.95139e-016 3.97569e-016 12.629 -6.09743 3.74766 90 5.61411e-016 -3.97569e-016 
152.492 88.9286 -128.844 158.991 -84.2084 70.3822 -0.772004 -1.43755 -0.763208 -1.56377 -2.86409 -1.54471 -1.56377 -2.86409 -1.54472 -8.30728e-012 -9.0191e-006 -5.27751e-005 12.497 -6.39298 3.61317 -178.265 -29.2564 -86.4542 -15.8471 -47.1438 10.7736 -7.71866 -3.18055e-015 -3.97569e-016 -27.6588 -53.476 -30.9717 -178.415 23.3391 86.0056 -34.1873 32.1565 6.11512 -4.34258 -9.54166e-015 -3.97569e-016 -61.6722 69.2082 64.5546 -1.85135 8.32061 -179.087 -8.12073 -1.59028e-015 -3.97569e-016 11.2686 5.32726 -7.41441 90 -1.49516e-015 -0 -5.32786 -5.70187 176.624 -12.2045 -7.95139e-016 -7.95139e-016 12.6345 -6.08732 3.74147 90 -4.76384e-016 1.19271e-015 
152.473 88.9284 -128.862 158.999 -84.2487 70.4102 -0.78425 -1.42641 -0.764915 -1.58821 -2.84163 -1.54983 -1.58821 -2.84163 -1.54984 -8.30728e-012 -9.0191e-006 -5.27751e-005 12.4104 -6.47186 3.46978 -178.275 -29.3119 -86.4792 -15.8501 -47.1818 10.7907 -7.88783 0 -0 -27.7507 -53.5465 -31.0777 -178.441 23.3545 86.0733 -34.0945 32.5148 6.20013 -4.45023 0 3.97569e-016 -61.8207 69.1717 64.7138 -1.80736 8.32344 -179.124 -8.15114 0 7.95139e-016 11.2738 5.29697 -7.3664 90 -1.28434e-015 -7.95139e-016 -5.31956 -5.75505 176.586 -12.275 7.95139e-016 3.97569e-016 12.683 -6.13819 3.7945 90 -2.88859e-016 7.95139e-016 
152.454 88.9285 -128.885 158.657 -84.3026 70.0811 -0.792312 -1.41944 -0.769397 -1.60435 -2.82751 -1.55889 -1.60435 -2.82751 -1.5589 -8.30788e-012 -9.0191e-006 -5.27751e-005 12.3808 -6.54258 3.35246 -178.214 -29.4659 -86.3723 -16.3118 -47.5953 10.5593 -7.83295 -9.54166e-015 3.97569e-016 -27.5256 -53.5898 -30.8487 -178.469 23.3069 86.1352 -33.9472 32.6132 6.23812 -4.47373 -9.54166e-015 -1.98785e-015 -62.0287 69.0821 64.9369 -1.72126 8.3233 -179.151 -8.13669 -3.18055e-015 -3.97569e-016 11.2731 5.29228 -7.35683 90 -5.27245e-016 -0 -5.19816 -5.72098 176.571 -12.1887 -2.38542e-015 -1.98785e-016 12.655 -6.09572 3.74889 90 1.1104e-016 -7.95139e-016 
152.438 88.9286 -128.895 158.07 -84.3427 69.5227 -0.798519 -1.42142 -0.778416 -1.61702 -2.83125 -1.57712 -1.61702 -2.83125 -1.57713 -8.30768e-012 -9.0191e-006 -5.27751e-005 12.4821 -6.54254 3.13567 -178.236 -29.5465 -86.4257 -16.5215 -47.8041 10.5881 -7.79581 -3.18055e-015 -7.95139e-016 -27.5027 -53.6147 -30.8283 -178.49 23.2875 86.1852 -33.9526 32.8695 6.27801 -4.38794 6.36111e-015 2.38542e-015 -62.0284 69.027 64.9368 -1.68565 8.33263 -179.176 -8.19109 -1.59028e-015 -3.97569e-016 11.3074 5.34194 -7.4435 90 -1.19116e-015 -0 -5.10065 -5.67452 176.536 -12.1424 1.59028e-015 7.95139e-016 12.6475 -6.02274 3.70799 90 3.11766e-016 -3.97569e-016 
152.418 88.9288 -128.917 157.173 -84.3961 68.6451 -0.798887 -1.43666 -0.782662 -1.62507 -2.86162 -1.58594 -1.62507 -2.86162 -1.58595 -8.30728e-012 -9.0191e-006 -5.27751e-005 12.6924 -6.27172 2.79071 -178.215 -29.5637 -86.3858 -16.6639 -47.6532 10.5409 -7.95353 3.18055e-015 3.18055e-015 -27.7066 -53.605 -31.04 -178.533 23.2557 86.2883 -33.8561 33.1922 6.13091 -4.49374 6.36111e-015 1.19271e-015 -62.2315 69.0115 65.1545 -1.59101 8.27406 -179.205 -8.18915 -3.18055e-015 -0 11.3066 5.34161 -7.43542 90 -3.12931e-016 1.59028e-015 -4.99485 -5.74889 176.506 -12.1279 0 9.93923e-017 12.6611 -6.02918 3.70993 90 -3.05554e-016 -7.95139e-016 
152.416 88.927 -128.92 156.804 -84.4659 68.2751 -0.79897 -1.43622 -0.785619 -1.6317 -2.86064 -1.59193 -1.6317 -2.86064 -1.59194 -8.30768e-012 -9.0191e-006 -5.27751e-005 12.8947 -6.0459 2.60435 -178.22 -29.5685 -86.3969 -16.7547 -47.6284 10.5921 -8.03336 -6.36111e-015 3.97569e-015 -27.6914 -53.6248 -31.0267 -178.527 23.2848 86.2786 -33.8614 32.9788 6.0733 -4.58813 -6.36111e-015 7.95139e-016 -62.3504 68.9633 65.2823 -1.50978 8.26476 -179.205 -8.18854 1.59028e-015 -3.97569e-016 11.3163 5.34926 -7.43436 90 1.08633e-015 -7.95139e-016 -4.88195 -5.70008 176.517 -12.0732 7.95139e-016 2.98177e-016 12.6371 -5.977 3.65381 90 -1.80537e-016 -3.97569e-016 
152.413 88.9244 -128.926 156.108 -84.4989 67.5743 -0.799238 -1.43803 -0.79526 -1.62386 -2.88171 -1.61129 -1.62386 -2.88171 -1.6113 -8.30788e-012 -9.0191e-006 -5.27751e-005 12.9924 -5.87535 2.6043 -178.205 -29.6524 -86.3756 -17.2105 -47.6629 10.3729 -7.83886 -3.18055e-015 -7.95139e-016 -27.5115 -53.5936 -30.8344 -178.518 23.2798 86.2546 -33.8905 32.9593 6.01022 -4.53555 0 -7.95139e-016 -62.1957 68.973 65.1163 -1.47818 8.2133 -179.197 -8.23425 3.18055e-015 -7.95139e-016 11.3449 5.33981 -7.43803 90 2.84976e-016 -2.38542e-015 -4.84807 -5.75048 176.512 -12.1332 1.59028e-015 3.97569e-016 12.6757 -5.98102 3.68952 90 1.99173e-016 -3.97569e-016 
